<svg width="50" height="50" viewBox="0 0 50 50" fill="none" xmlns="http://www.w3.org/2000/svg">
<path d="M1 3C1 1.89543 1.89543 1 3 1H47C48.1046 1 49 1.89543 49 3V47C49 48.1046 48.1046 49 47 49H3C1.89543 49 1 48.1046 1 47V3Z" fill="white"/>
<path d="M3 1.5H47V0.5H3V1.5ZM48.5 3V47H49.5V3H48.5ZM47 48.5H3V49.5H47V48.5ZM1.5 47V3H0.5V47H1.5ZM3 48.5C2.17157 48.5 1.5 47.8284 1.5 47H0.5C0.5 48.3807 1.61929 49.5 3 49.5V48.5ZM48.5 47C48.5 47.8284 47.8284 48.5 47 48.5V49.5C48.3807 49.5 49.5 48.3807 49.5 47H48.5ZM47 1.5C47.8284 1.5 48.5 2.17157 48.5 3H49.5C49.5 1.61929 48.3807 0.5 47 0.5V1.5ZM3 0.5C1.61929 0.5 0.5 1.61929 0.5 3H1.5C1.5 2.17157 2.17157 1.5 3 1.5V0.5Z" fill="black"/>
<path d="M34 19.5L30 23.5V20C30 19.45 29.55 19 29 19H22.82L34 30.18V19.5ZM16.27 15L15 16.27L17.73 19H17C16.45 19 16 19.45 16 20V30C16 30.55 16.45 31 17 31H29C29.21 31 29.39 30.92 29.54 30.82L32.73 34L34 32.73L16.27 15Z" fill="#EB3223"/>
</svg>
