<svg width="50" height="50" viewBox="0 0 50 50" fill="none" xmlns="http://www.w3.org/2000/svg">
<path d="M1 3C1 1.89543 1.89543 1 3 1H47C48.1046 1 49 1.89543 49 3V47C49 48.1046 48.1046 49 47 49H3C1.89543 49 1 48.1046 1 47V3Z" fill="white"/>
<path d="M3 1.5H47V0.5H3V1.5ZM48.5 3V47H49.5V3H48.5ZM47 48.5H3V49.5H47V48.5ZM1.5 47V3H0.5V47H1.5ZM3 48.5C2.17157 48.5 1.5 47.8284 1.5 47H0.5C0.5 48.3807 1.61929 49.5 3 49.5V48.5ZM48.5 47C48.5 47.8284 47.8284 48.5 47 48.5V49.5C48.3807 49.5 49.5 48.3807 49.5 47H48.5ZM47 1.5C47.8284 1.5 48.5 2.17157 48.5 3H49.5C49.5 1.61929 48.3807 0.5 47 0.5V1.5ZM3 0.5C1.61929 0.5 0.5 1.61929 0.5 3H1.5C1.5 2.17157 2.17157 1.5 3 1.5V0.5Z" fill="black"/>
<path d="M32 25H30.3C30.3 25.74 30.14 26.43 29.87 27.05L31.1 28.28C31.66 27.3 32 26.19 32 25ZM27.98 25.17C27.98 25.11 28 25.06 28 25V19C28 17.34 26.66 16 25 16C23.34 16 22 17.34 22 19V19.18L27.98 25.17ZM17.27 17L16 18.27L22.01 24.28V25C22.01 26.66 23.34 28 25 28C25.22 28 25.44 27.97 25.65 27.92L27.31 29.58C26.6 29.91 25.81 30.1 25 30.1C22.24 30.1 19.7 28 19.7 25H18C18 28.41 20.72 31.23 24 31.72V35H26V31.72C26.91 31.59 27.77 31.27 28.54 30.82L32.73 35L34 33.73L17.27 17Z" fill="#EB3223"/>
</svg>
