<svg width="50" height="50" viewBox="0 0 50 50" fill="none" xmlns="http://www.w3.org/2000/svg">
<path d="M1 3C1 1.89543 1.89543 1 3 1H47C48.1046 1 49 1.89543 49 3V47C49 48.1046 48.1046 49 47 49H3C1.89543 49 1 48.1046 1 47V3Z" fill="white"/>
<path d="M3 1.5H47V0.5H3V1.5ZM48.5 3V47H49.5V3H48.5ZM47 48.5H3V49.5H47V48.5ZM1.5 47V3H0.5V47H1.5ZM3 48.5C2.17157 48.5 1.5 47.8284 1.5 47H0.5C0.5 48.3807 1.61929 49.5 3 49.5V48.5ZM48.5 47C48.5 47.8284 47.8284 48.5 47 48.5V49.5C48.3807 49.5 49.5 48.3807 49.5 47H48.5ZM47 1.5C47.8284 1.5 48.5 2.17157 48.5 3H49.5C49.5 1.61929 48.3807 0.5 47 0.5V1.5ZM3 0.5C1.61929 0.5 0.5 1.61929 0.5 3H1.5C1.5 2.17157 2.17157 1.5 3 1.5V0.5Z" fill="black"/>
<path d="M25 27C26.66 27 27.99 25.66 27.99 24L28 18C28 16.34 26.66 15 25 15C23.34 15 22 16.34 22 18V24C22 25.66 23.34 27 25 27ZM30.3 24C30.3 27 27.76 29.1 25 29.1C22.24 29.1 19.7 27 19.7 24H18C18 27.41 20.72 30.23 24 30.72V34H26V30.72C29.28 30.24 32 27.42 32 24H30.3Z" fill="#2ECC71"/>
</svg>
